<svg xmlns="http://www.w3.org/2000/svg" width="512" height="512" x="0" y="0" viewBox="0 0 512 512">
    <path d="M412.213,201L296.602,85.389C299.419,79.514,301,72.939,301,66c0-24.813-20.187-45-45-45s-45,20.187-45,45 c0,6.939,1.581,13.514,4.398,19.389L99.787,201H0v90h33.082l20.419,136.125c2.664,17.757,11.623,33.988,25.229,45.705    C92.336,484.547,109.716,491,127.671,491h256.657c17.955,0,35.336-6.453,48.942-18.169s22.565-27.948,25.229-45.705L478.918,291    H512v-90H412.213z M256,51c8.271,0,15,6.729,15,15s-6.729,15-15,15s-15-6.729-15-15S247.729,51,256,51z M236.611,106.602    C242.486,109.419,249.061,111,256,111c6.939,0,13.514-1.581,19.389-4.398L369.787,201H142.213L236.611,106.602z M428.831,422.675    C425.5,444.882,406.784,461,384.329,461H127.671c-22.456,0-41.171-16.118-44.502-38.325L63.418,291h385.164L428.831,422.675z     M482,261H30v-30h452V261z"/>
    <rect x="241" y="321" width="30" height="110"/>
    <rect x="151" y="321" width="30" height="110"/>
    <rect x="331" y="321" width="30" height="110"/>
</svg>

