<?xml version="1.0" encoding="UTF-8"?>
<svg width="570px" height="73px" viewBox="0 0 570 73" version="1.1" xmlns="http://www.w3.org/2000/svg" xmlns:xlink="http://www.w3.org/1999/xlink">
    <!-- Generator: Sketch 49.1 (51147) - http://www.bohemiancoding.com/sketch -->
    <title>Logos/NordicTrack/Black</title>
    <desc>Created with Sketch.</desc>
    <defs></defs>
    <g id="Logos/NordicTrack/Black" stroke="none" stroke-width="1" fill="none" fill-rule="evenodd">
        <g id="icon-NordicTrack" fill="#000000">
            <g id="Group">
                <polygon id="Shape" points="57.1608909 0.926445652 53.2116764 22.8711359 51.2374861 38.3449239 33.4664379 0.926445652 12.310587 0.926445652 0.181154723 71.2615435 21.6187946 71.2615435 25.568009 49.5979076 27.5421994 32.1550761 45.3132476 71.2615435 66.4690984 71.2615435 78.5985308 0.926445652"></polygon>
                <path d="M107.088399,20.0572663 C90.1635514,20.0572663 76.9061294,29.6230924 74.0857383,47.0659239 C70.9827246,64.2277011 81.9841672,72.9495326 98.0619803,72.9495326 C114.139793,72.9495326 127.962461,64.509587 131.347263,46.2219293 C133.885866,30.467087 124.859447,20.0572663 107.088399,20.0572663 L107.088399,20.0572663 L107.088399,20.0572663 Z M111.320236,45.940875 C109.627835,55.2248152 105.67862,59.4456196 100.319627,59.4456196 C95.2424229,59.4456196 92.4211982,55.2256467 94.1135995,45.940875 C95.2415892,40.3139674 98.344603,33.280125 105.114208,33.280125 C110.191413,32.9990707 112.730015,38.6259783 111.320236,45.940875 L111.320236,45.940875 L111.320236,45.940875 Z" id="Shape"></path>
                <path d="M174.786955,20.3391522 C173.940754,20.3391522 173.094554,20.0580978 172.248353,20.0580978 C164.632547,20.0580978 158.990931,23.7151304 154.759927,31.5929674 L154.478138,31.5929674 L156.17054,21.4650326 L138.117703,21.4650326 L129.373073,71.262375 L149.118312,71.262375 L152.221325,54.1005978 C154.195516,43.4097228 158.990931,39.4708043 166.88936,39.4708043 C168.299972,39.4708043 169.709751,39.7518587 170.838574,40.0337446 L174.787789,20.3399837 L174.786955,20.3391522 Z" id="Shape"></path>
                <path d="M215.970667,0.926445652 L211.457041,26.5281685 C208.072238,21.4642011 204.123024,20.0572663 197.635207,20.0572663 C185.787564,20.0572663 174.505166,30.7481413 171.683941,47.3478098 C169.145339,61.414663 174.786955,72.6684783 190.019401,72.6684783 C196.507218,72.6684783 201.02001,70.6994348 206.944248,64.509587 L205.816259,71.2615435 L223.587307,71.2615435 L235.998528,0.926445652 L215.970667,0.926445652 L215.970667,0.926445652 L215.970667,0.926445652 Z M208.63665,46.7848696 C207.50866,52.6928315 204.405646,58.3197391 197.636041,58.3197391 C191.148224,58.3197391 190.866435,52.1298913 191.712636,47.0659239 C192.558837,41.4390163 195.661851,35.2491685 202.149667,35.2491685 C208.637484,35.2491685 209.483684,41.4390163 208.637484,46.784038 L208.63665,46.7848696 L208.63665,46.7848696 Z" id="Shape"></path>
                <path d="M286.489614,59.4456196 C280.566209,59.4456196 278.591185,54.3816522 280.001798,47.0667554 C281.129787,41.1587935 283.668389,33.5620109 291.002407,33.5620109 C293.25922,33.5620109 294.668998,34.1249511 295.797822,35.5310543 C296.925811,36.6561033 297.208434,38.6259783 296.925811,40.5950217 L316.953673,40.5950217 C318.081662,25.9652283 306.516642,20.0572663 293.25922,20.0572663 C276.616995,20.0572663 263.07695,29.9041467 259.973936,46.7848696 C256.870923,63.6655924 267.872365,72.6684783 283.950178,72.6684783 C297.772012,72.6684783 311.029434,67.0415707 315.260438,51.848837 L295.515199,51.848837 C294.104587,55.7877554 291.565985,59.444788 286.48878,59.444788 L286.489614,59.4456196 Z" id="Shape"></path>
                <path d="M395.371882,20.3391522 C394.525682,20.3391522 393.679481,20.0580978 392.83328,20.0580978 C385.217474,20.0580978 379.575858,23.7151304 375.344855,31.5929674 L375.063066,31.5929674 L376.755467,21.4650326 L358.70263,21.4650326 L349.958001,71.262375 L369.703239,71.262375 L372.806253,54.1005978 C374.780443,43.4097228 379.575858,39.4708043 387.474287,39.4708043 C388.8849,39.4708043 390.294678,39.7518587 391.423502,40.0337446 L395.372716,20.3399837 L395.371882,20.3391522 Z" id="Shape"></path>
                <path d="M425.272363,20.0572663 C405.527124,20.0572663 396.782495,26.2471141 395.090093,36.9379891 L414.27092,36.9379891 C415.39891,32.7180163 419.348124,32.1550761 422.169349,32.1550761 C424.143539,32.1550761 428.657166,32.7180163 427.810965,36.3750489 C426.118564,45.6589891 392.268869,35.5310543 388.320488,58.0386848 C386.346298,68.4485054 393.962104,72.9495326 403.552934,72.9495326 C410.886951,72.9495326 417.092979,71.5425978 423.580795,66.1975761 L423.580795,71.5434293 L444.172234,71.5434293 L444.454023,70.6994348 C442.19721,68.7303913 442.479833,67.0424022 443.043411,64.2285326 L447.274414,40.8769076 C448.966816,28.7790978 448.966816,20.0572663 425.272363,20.0572663 L425.272363,20.0572663 L425.272363,20.0572663 Z M414.552709,61.414663 C410.603495,61.414663 408.629304,59.7266739 408.911093,57.1946902 C410.039083,50.723788 418.501924,52.1307228 425.553318,49.0357989 C424.707117,56.0696413 421.604104,61.414663 414.552709,61.414663 L414.552709,61.414663 L414.552709,61.414663 Z" id="Shape"></path>
                <path d="M475.763449,59.4456196 C469.840044,59.4456196 467.86502,54.3816522 469.275632,47.0667554 C470.403622,41.1587935 472.942224,33.5620109 480.276241,33.5620109 C482.533054,33.5620109 483.942833,34.1249511 485.071656,35.5310543 C486.199646,36.6561033 486.482269,38.6259783 486.199646,40.5950217 L506.227507,40.5950217 C507.355497,25.9652283 495.790476,20.0572663 482.533054,20.0572663 C465.89083,20.0572663 452.350785,29.9041467 449.247771,46.7848696 C446.144757,63.6655924 457.1462,72.6684783 473.224013,72.6684783 C487.045847,72.6684783 500.303269,67.0415707 504.534272,51.848837 L484.506411,51.848837 C483.66021,55.7877554 480.839819,59.444788 475.761781,59.444788 L475.763449,59.4456196 Z" id="Shape"></path>
                <polygon id="Shape" points="546.565019 21.4642011 531.050784 36.6569348 537.256811 0.926445652 517.511573 0.926445652 505.100351 71.2615435 524.84559 71.2615435 527.384192 57.4757446 531.897818 53.818712 539.231835 71.2615435 563.208077 71.2615435 547.693842 40.8769076 569.695894 21.4642011"></polygon>
                <polygon id="Shape" points="239.946909 21.4642011 231.202279 71.2615435 251.230141 71.2615435 259.97477 21.4642011"></polygon>
                <polygon id="Shape" points="380.139436 0.926445652 300.87586 0.926445652 298.055469 16.4002337 326.545337 16.4002337 316.954506 71.2615435 339.238347 71.2615435 349.110966 16.4002337 377.319045 16.4002337"></polygon>
            </g>
        </g>
    </g>
</svg>