<svg width="22" height="19" viewBox="0 0 22 19" fill="none" xmlns="http://www.w3.org/2000/svg">
<path d="M1 6.99999H8.586L6.293 9.29299C6.19749 9.38524 6.12131 9.49558 6.0689 9.61759C6.01649 9.73959 5.9889 9.87081 5.98775 10.0036C5.9866 10.1364 6.0119 10.268 6.06218 10.3909C6.11246 10.5138 6.18671 10.6255 6.2806 10.7194C6.3745 10.8133 6.48615 10.8875 6.60905 10.9378C6.73194 10.9881 6.86362 11.0134 6.9964 11.0122C7.12918 11.0111 7.2604 10.9835 7.3824 10.9311C7.50441 10.8787 7.61475 10.8025 7.707 10.707L11.707 6.70699C11.8945 6.51946 11.9998 6.26515 11.9998 5.99999C11.9998 5.73483 11.8945 5.48052 11.707 5.29299L7.707 1.29299C7.61475 1.19748 7.50441 1.1213 7.3824 1.06889C7.2604 1.01648 7.12918 0.988893 6.9964 0.987739C6.86362 0.986585 6.73194 1.01189 6.60905 1.06217C6.48615 1.11245 6.3745 1.1867 6.2806 1.28059C6.18671 1.37449 6.11246 1.48614 6.06218 1.60904C6.0119 1.73193 5.9866 1.86361 5.98775 1.99639C5.9889 2.12917 6.01649 2.26039 6.0689 2.38239C6.12131 2.5044 6.19749 2.61474 6.293 2.70699L8.586 4.99999H1C0.734784 4.99999 0.48043 5.10535 0.292893 5.29288C0.105357 5.48042 0 5.73477 0 5.99999C0 6.26521 0.105357 6.51956 0.292893 6.7071C0.48043 6.89463 0.734784 6.99999 1 6.99999V6.99999Z" fill="black"/>
<path d="M21 13H13.414L15.707 10.707C15.8892 10.5184 15.99 10.2658 15.9877 10.0036C15.9854 9.74138 15.8802 9.49057 15.6948 9.30516C15.5094 9.11975 15.2586 9.01458 14.9964 9.01231C14.7342 9.01003 14.4816 9.11082 14.293 9.29298L10.293 13.293C10.1055 13.4805 10.0002 13.7348 10.0002 14C10.0002 14.2651 10.1055 14.5195 10.293 14.707L14.293 18.707C14.4816 18.8891 14.7342 18.9899 14.9964 18.9877C15.2586 18.9854 15.5094 18.8802 15.6948 18.6948C15.8802 18.5094 15.9854 18.2586 15.9877 17.9964C15.99 17.7342 15.8892 17.4816 15.707 17.293L13.414 15H21C21.2652 15 21.5196 14.8946 21.7071 14.7071C21.8946 14.5196 22 14.2652 22 14C22 13.7348 21.8946 13.4804 21.7071 13.2929C21.5196 13.1053 21.2652 13 21 13Z" fill="black"/>
</svg>
