<svg width="410" height="410" viewBox="0 0 410 410" fill="none" xmlns="http://www.w3.org/2000/svg">
<path d="M68.4667 68.4667H170.867V170.867H68.4667V68.4667Z" fill="#013CB2"/>
<path d="M68.4667 239.133H170.867V341.533H68.4667V239.133Z" fill="#013CB2"/>
<path d="M239.133 239.133H341.533V341.533H239.133V239.133Z" fill="#013CB2"/>
<path d="M401.267 0.200012H8.73332C4.04009 0.200012 0.199989 4.04012 0.199989 8.73335V401.267C0.199989 405.96 4.04009 409.8 8.73332 409.8H401.267C405.96 409.8 409.8 405.96 409.8 401.267V8.73335C409.8 4.04012 405.96 0.200012 401.267 0.200012ZM187.933 350.067C187.933 354.783 184.117 358.6 179.4 358.6H59.9333C55.2167 358.6 51.4 354.783 51.4 350.067V230.6C51.4 225.888 55.2167 222.067 59.9333 222.067H179.4C184.117 222.067 187.933 225.888 187.933 230.6V350.067ZM187.933 179.4C187.933 184.113 184.117 187.933 179.4 187.933H59.9333C55.2167 187.933 51.4 184.113 51.4 179.4V59.9333C51.4 55.2208 55.2167 51.4 59.9333 51.4H179.4C184.117 51.4 187.933 55.2208 187.933 59.9333V179.4ZM358.6 350.067C358.6 354.783 354.783 358.6 350.067 358.6H230.6C225.883 358.6 222.067 354.783 222.067 350.067V230.6C222.067 225.888 225.883 222.067 230.6 222.067H350.067C354.783 222.067 358.6 225.888 358.6 230.6V350.067ZM358.6 179.4C358.6 184.113 354.783 187.933 350.067 187.933H230.6C225.883 187.933 222.067 184.113 222.067 179.4V59.9333C222.067 55.2208 225.883 51.4 230.6 51.4H350.067C354.783 51.4 358.6 55.2208 358.6 59.9333V179.4Z" fill="#3B4651"/>
<path d="M239.133 68.4667H341.533V170.867H239.133V68.4667Z" fill="#013CB2"/>
</svg>
