<svg width="80" height="65" viewBox="0 0 80 65" fill="none" xmlns="http://www.w3.org/2000/svg">
<rect width="80" height="65" fill="#013CB2"/>
<path d="M67.0071 54.368H26.8854C25.2318 54.368 23.8915 53.0278 23.8915 51.3742C23.8915 49.7206 25.2318 48.3803 26.8854 48.3803H67.0061C68.6597 48.3803 70 49.7206 70 51.3742C70 53.0278 68.6607 54.368 67.0071 54.368Z" fill="white"/>
<path d="M67.0071 35.5756H26.8854C25.2318 35.5756 23.8915 34.2353 23.8915 32.5817C23.8915 30.9281 25.2318 29.5878 26.8854 29.5878H67.0061C68.6597 29.5878 70 30.9281 70 32.5817C70.001 34.2353 68.6607 35.5756 67.0071 35.5756Z" fill="white"/>
<path d="M67.0071 16.7831H26.8854C25.2318 16.7831 23.8915 15.4429 23.8915 13.7892C23.8915 12.1356 25.2318 10.7954 26.8854 10.7954H67.0061C68.6597 10.7954 70 12.1356 70 13.7892C70 15.4429 68.6607 16.7831 67.0071 16.7831Z" fill="white"/>
<path d="M14.0208 18.0415C16.2414 18.0415 18.0415 16.2414 18.0415 14.0208C18.0415 11.8002 16.2414 10 14.0208 10C11.8002 10 10 11.8002 10 14.0208C10 16.2414 11.8002 18.0415 14.0208 18.0415Z" fill="white"/>
<path d="M14.0208 36.6024C16.2414 36.6024 18.0415 34.8023 18.0415 32.5817C18.0415 30.3611 16.2414 28.5609 14.0208 28.5609C11.8002 28.5609 10 30.3611 10 32.5817C10 34.8023 11.8002 36.6024 14.0208 36.6024Z" fill="white"/>
<path d="M14.0208 55.1634C16.2414 55.1634 18.0415 53.3633 18.0415 51.1427C18.0415 48.9221 16.2414 47.1219 14.0208 47.1219C11.8002 47.1219 10 48.9221 10 51.1427C10 53.3633 11.8002 55.1634 14.0208 55.1634Z" fill="white"/>
</svg>
