<svg width="125" height="60" viewBox="0 0 111 40" fill="none" xmlns="http://www.w3.org/2000/svg">
<path d="M2.63072 36.2964C2.98521 36.2964 3.29494 36.189 3.55992 35.9741C3.82489 35.7593 3.9717 35.4907 4.00035 35.1685H4.94029C4.92238 35.5015 4.8078 35.8184 4.59654 36.1191C4.38528 36.4199 4.1024 36.6598 3.74792 36.8389C3.397 37.0179 3.02461 37.1074 2.63072 37.1074C1.83938 37.1074 1.20917 36.8442 0.740095 36.3179C0.274603 35.7879 0.041856 35.0646 0.041856 34.1479V33.9814C0.041856 33.4157 0.145697 32.9126 0.353379 32.4722C0.561065 32.0317 0.858265 31.6898 1.24499 31.4463C1.63529 31.2028 2.0954 31.0811 2.62536 31.0811C3.27705 31.0811 3.81773 31.2762 4.24742 31.6665C4.68069 32.0568 4.91164 32.5635 4.94029 33.1865H4.00035C3.9717 32.8105 3.82848 32.5026 3.57067 32.2627C3.31644 32.0192 3.00132 31.8975 2.62536 31.8975C2.12047 31.8975 1.72838 32.0801 1.44909 32.4453C1.17337 32.807 1.03551 33.3315 1.03551 34.019V34.207C1.03551 34.8766 1.17337 35.3923 1.44909 35.7539C1.7248 36.1156 2.11867 36.2964 2.63072 36.2964ZM10.8109 37H9.81721V32.0103H7.14244V37H6.14341V31.1885H10.8109V37ZM12.1429 34.0405C12.1429 33.4712 12.2539 32.9591 12.4759 32.5044C12.7015 32.0496 13.013 31.6987 13.4105 31.4517C13.8115 31.2046 14.2681 31.0811 14.7801 31.0811C15.5715 31.0811 16.2106 31.355 16.6976 31.9028C17.1882 32.4507 17.4334 33.1794 17.4334 34.0889V34.1587C17.4334 34.7244 17.3242 35.2329 17.1058 35.6841C16.891 36.1317 16.5812 36.4808 16.1766 36.7314C15.7756 36.9821 15.3137 37.1074 14.7909 37.1074C14.0031 37.1074 13.3639 36.8335 12.8734 36.2856C12.3864 35.7378 12.1429 35.0127 12.1429 34.1104V34.0405ZM13.1419 34.1587C13.1419 34.8032 13.2905 35.3206 13.5877 35.7109C13.8885 36.1012 14.2896 36.2964 14.7909 36.2964C15.2957 36.2964 15.6968 36.0994 15.994 35.7056C16.2912 35.3081 16.4398 34.7531 16.4398 34.0405C16.4398 33.4032 16.2876 32.8875 15.9832 32.4937C15.6825 32.0962 15.2814 31.8975 14.7801 31.8975C14.2896 31.8975 13.8939 32.0926 13.5931 32.4829C13.2923 32.8732 13.1419 33.4318 13.1419 34.1587ZM23.5887 34.1587C23.5887 35.0431 23.3864 35.7557 22.9818 36.2964C22.5772 36.8371 22.0293 37.1074 21.3382 37.1074C20.6328 37.1074 20.0778 36.8836 19.6732 36.436V39.2344H18.6795V31.1885H19.5873L19.6356 31.833C20.0402 31.3317 20.6024 31.0811 21.3221 31.0811C22.0204 31.0811 22.5718 31.3442 22.9764 31.8706C23.3846 32.397 23.5887 33.1292 23.5887 34.0674V34.1587ZM22.5951 34.0459C22.5951 33.3906 22.4554 32.8732 22.1761 32.4937C21.8968 32.1141 21.5137 31.9243 21.0267 31.9243C20.4251 31.9243 19.974 32.1911 19.6732 32.7246V35.5015C19.9704 36.0314 20.4251 36.2964 21.0374 36.2964C21.5137 36.2964 21.8915 36.1084 22.1707 35.7324C22.4536 35.3529 22.5951 34.7907 22.5951 34.0459ZM28.745 31.9941H26.7953V37H25.8016V31.9941H23.8895V31.1885H28.745V31.9941ZM33.4715 31.1885H34.4652V37H33.4715V32.7622L30.7914 37H29.7977V31.1885H30.7914V35.4316L33.4715 31.1885ZM36.1517 37V31.1885H38.4183C39.1917 31.1885 39.7844 31.3245 40.1961 31.5967C40.6115 31.8652 40.8192 32.2609 40.8192 32.7837C40.8192 33.0522 40.7386 33.2957 40.5775 33.5142C40.4164 33.729 40.1782 33.8937 39.8631 34.0083C40.214 34.0907 40.4951 34.2518 40.7064 34.4917C40.9212 34.7316 41.0287 35.0181 41.0287 35.3511C41.0287 35.8846 40.8317 36.2928 40.4378 36.5757C40.0475 36.8586 39.4943 37 38.7782 37H36.1517ZM37.1454 34.4487V36.1997H38.7889C39.2043 36.1997 39.514 36.1227 39.7181 35.9688C39.9258 35.8148 40.0296 35.5981 40.0296 35.3188C40.0296 34.7388 39.6035 34.4487 38.7513 34.4487H37.1454ZM37.1454 33.6538H38.429C39.36 33.6538 39.8255 33.3817 39.8255 32.8374C39.8255 32.2931 39.3851 32.012 38.5042 31.9941H37.1454V33.6538ZM47.0926 37H46.099V34.5186H43.4295V37H42.4305V31.1885H43.4295V33.7075H46.099V31.1885H47.0926V37ZM49.7782 33.1919H51.2874C51.9463 33.1991 52.4673 33.3709 52.8504 33.7075C53.2336 34.0441 53.4251 34.5007 53.4251 35.0771C53.4251 35.6572 53.2282 36.1227 52.8343 36.4736C52.4404 36.8245 51.9105 37 51.2445 37H48.7845V31.1885H49.7782V33.1919ZM55.4984 37H54.4994V31.1885H55.4984V37ZM49.7782 34.0029V36.189H51.2552C51.6276 36.189 51.9159 36.0941 52.12 35.9043C52.3241 35.7109 52.4261 35.4478 52.4261 35.1147C52.4261 34.7925 52.3259 34.5293 52.1253 34.3252C51.9284 34.1175 51.6509 34.0101 51.2928 34.0029H49.7782ZM60.993 31.1885H61.9867V37H60.993V32.7622L58.3128 37H57.3192V31.1885H58.3128V35.4316L60.993 31.1885ZM61.2616 29.0723C61.2616 29.5055 61.113 29.8547 60.8158 30.1196C60.5221 30.381 60.1354 30.5117 59.6556 30.5117C59.1758 30.5117 58.7873 30.3792 58.4901 30.1143C58.1929 29.8493 58.0443 29.502 58.0443 29.0723H58.8553C58.8553 29.3229 58.9234 29.5199 59.0594 29.6631C59.1955 29.8027 59.3942 29.8726 59.6556 29.8726C59.9063 29.8726 60.1014 29.8027 60.2411 29.6631C60.3843 29.5234 60.4559 29.3265 60.4559 29.0723H61.2616ZM69.6566 35.6841L71.6331 31.1885H72.8739V37H71.8802V32.7729L70.0003 37H69.3128L67.3954 32.6816V37H66.4017V31.1885H67.6908L69.6566 35.6841ZM78.0623 37C78.0051 36.8854 77.9585 36.6813 77.9227 36.3877C77.4608 36.8675 76.9094 37.1074 76.2684 37.1074C75.6955 37.1074 75.2246 36.9463 74.8558 36.624C74.4906 36.2982 74.308 35.8864 74.308 35.3887C74.308 34.7835 74.5371 34.3145 74.9955 33.9814C75.4574 33.6449 76.1055 33.4766 76.9398 33.4766H77.9066V33.02C77.9066 32.6727 77.8027 32.397 77.5951 32.1929C77.3874 31.9852 77.0812 31.8813 76.6766 31.8813C76.3221 31.8813 76.0249 31.9709 75.785 32.1499C75.5451 32.3289 75.4251 32.5456 75.4251 32.7998H74.4261C74.4261 32.5098 74.5282 32.2305 74.7323 31.9619C74.94 31.6898 75.2192 31.4749 75.5702 31.3174C75.9247 31.1598 76.3132 31.0811 76.7357 31.0811C77.4053 31.0811 77.9299 31.2493 78.3094 31.5859C78.689 31.9189 78.8859 32.3791 78.9002 32.9663V35.6411C78.9002 36.1746 78.9683 36.599 79.1043 36.9141V37H78.0623ZM76.4134 36.2427C76.7249 36.2427 77.0204 36.1621 77.2997 36.001C77.5789 35.8398 77.7813 35.6304 77.9066 35.3726V34.1802H77.1278C75.9103 34.1802 75.3016 34.5365 75.3016 35.249C75.3016 35.5605 75.4054 35.804 75.6131 35.9795C75.8208 36.1549 76.0876 36.2427 76.4134 36.2427ZM84.2123 32.0103H81.5321V37H80.5331V31.1885H84.2123V32.0103ZM88.6649 37C88.6076 36.8854 88.561 36.6813 88.5252 36.3877C88.0633 36.8675 87.5119 37.1074 86.8709 37.1074C86.298 37.1074 85.8272 36.9463 85.4583 36.624C85.0931 36.2982 84.9105 35.8864 84.9105 35.3887C84.9105 34.7835 85.1397 34.3145 85.598 33.9814C86.0599 33.6449 86.708 33.4766 87.5423 33.4766H88.5091V33.02C88.5091 32.6727 88.4053 32.397 88.1976 32.1929C87.9899 31.9852 87.6838 31.8813 87.2791 31.8813C86.9247 31.8813 86.6275 31.9709 86.3875 32.1499C86.1476 32.3289 86.0277 32.5456 86.0277 32.7998H85.0287C85.0287 32.5098 85.1307 32.2305 85.3348 31.9619C85.5425 31.6898 85.8218 31.4749 86.1727 31.3174C86.5272 31.1598 86.9157 31.0811 87.3382 31.0811C88.0078 31.0811 88.5324 31.2493 88.912 31.5859C89.2915 31.9189 89.4885 32.3791 89.5028 32.9663V35.6411C89.5028 36.1746 89.5708 36.599 89.7069 36.9141V37H88.6649ZM87.016 36.2427C87.3275 36.2427 87.6229 36.1621 87.9022 36.001C88.1815 35.8398 88.3838 35.6304 88.5091 35.3726V34.1802H87.7303C86.5129 34.1802 85.9041 34.5365 85.9041 35.249C85.9041 35.5605 86.008 35.804 86.2157 35.9795C86.4234 36.1549 86.6901 36.2427 87.016 36.2427ZM94.2562 32.7783C94.2562 32.5062 94.1524 32.2913 93.9447 32.1338C93.737 31.9727 93.4523 31.8921 93.0907 31.8921C92.7398 31.8921 92.4461 31.9834 92.2098 32.166C91.9771 32.3486 91.8607 32.5635 91.8607 32.8105H90.8724C90.8724 32.3057 91.0837 31.8921 91.5062 31.5698C91.9287 31.2476 92.4569 31.0864 93.0907 31.0864C93.771 31.0864 94.301 31.2332 94.6805 31.5269C95.0601 31.8169 95.2498 32.2323 95.2498 32.7729C95.2498 33.0343 95.1711 33.2743 95.0135 33.4927C94.856 33.7111 94.6322 33.8848 94.3421 34.0137C95.0189 34.2428 95.3573 34.694 95.3573 35.3672C95.3573 35.9007 95.1514 36.3232 94.7396 36.6348C94.3278 36.9463 93.7782 37.1021 93.0907 37.1021C92.4211 37.1021 91.8678 36.9391 91.431 36.6133C90.9977 36.2839 90.7811 35.8398 90.7811 35.2812H91.7694C91.7694 35.5641 91.8947 35.8076 92.1454 36.0117C92.3996 36.2122 92.7147 36.3125 93.0907 36.3125C93.4702 36.3125 93.7764 36.2248 94.0091 36.0493C94.2419 35.8739 94.3582 35.6465 94.3582 35.3672C94.3582 35.0413 94.2598 34.8086 94.0628 34.6689C93.8695 34.5257 93.5669 34.4541 93.1551 34.4541H92.1615V33.6162H93.2411C93.9178 33.5983 94.2562 33.319 94.2562 32.7783ZM100.406 31.1885H101.4V37H100.406V32.7622L97.7259 37H96.7323V31.1885H97.7259V35.4316L100.406 31.1885ZM107.743 37H106.75V34.5186H104.08V37H103.081V31.1885H104.08V33.7075H106.75V31.1885H107.743V37Z" fill="white"/>
<path d="M0 0.0400009H9.12001C11.4133 0.0400009 13.2 0.186671 14.48 0.480001C15.7867 0.746671 16.7333 1.24 17.32 1.96C17.9333 2.68 18.24 3.73333 18.24 5.12V9.6C18.24 11.1467 17.6 12.3467 16.32 13.2C15.0667 14.0267 13.4667 14.44 11.52 14.44L19.84 26H15.08L7.64001 14.92H3.88001V26H0V0.0400009ZM8.96 12.36C10.88 12.36 12.2533 12.1333 13.08 11.68C13.9333 11.2 14.36 10.3467 14.36 9.12V5.52C14.36 3.57333 12.68 2.6 9.32001 2.6H3.88001V12.36H8.96ZM33.1934 26.4C27.2734 26.4 24.3134 24.4267 24.3134 20.48V12.84C24.3134 10.4933 24.9801 8.81333 26.3134 7.8C27.6734 6.76 29.8601 6.24 32.8734 6.24C35.7268 6.24 37.7801 6.73333 39.0334 7.72C40.3134 8.70667 40.9534 10.4133 40.9534 12.84V17.12H27.9534V20.04C27.9534 21.3733 28.4201 22.3333 29.3534 22.92C30.2868 23.5067 31.7268 23.8 33.6734 23.8C35.5134 23.8 37.6868 23.48 40.1934 22.84V25.6C37.7401 26.1333 35.4068 26.4 33.1934 26.4ZM37.3534 14.76V11.72C37.3534 10.5467 36.9934 9.7467 36.2734 9.32C35.5801 8.86667 34.3801 8.64 32.6734 8.64C31.0201 8.64 29.8201 8.86667 29.0734 9.32C28.3268 9.7467 27.9534 10.5467 27.9534 11.72V14.76H37.3534ZM52.3997 26.4C50.5597 26.4 49.133 26.2267 48.1197 25.88C47.133 25.5333 46.413 24.92 45.9597 24.04C45.533 23.16 45.3197 21.8933 45.3197 20.24C45.3197 18.7733 45.5197 17.64 45.9197 16.84C46.3463 16.0133 47.053 15.4267 48.0397 15.08C49.053 14.7333 50.4797 14.56 52.3197 14.56H58.1197V11.48C58.1197 10.76 57.973 10.2133 57.6797 9.84C57.413 9.44 56.9463 9.16 56.2797 9C55.6397 8.84 54.693 8.76 53.4397 8.76C51.4397 8.76 49.2263 8.92 46.7997 9.24V6.6C49.4397 6.36 51.8263 6.24 53.9597 6.24C56.1997 6.24 57.853 6.41333 58.9197 6.76C59.9863 7.08 60.7197 7.65333 61.1197 8.48C61.5197 9.3067 61.7197 10.5867 61.7197 12.32V26H58.2397V24.16C57.9463 25.6533 55.9997 26.4 52.3997 26.4ZM52.9997 24.04C54.3063 24.04 55.413 23.9467 56.3197 23.76C57.5197 23.52 58.1197 22.96 58.1197 22.08V16.8H52.5597C51.413 16.8 50.5863 16.8933 50.0797 17.08C49.573 17.24 49.2397 17.56 49.0797 18.04C48.9197 18.52 48.8397 19.2933 48.8397 20.36C48.8397 21.32 48.933 22.0667 49.1197 22.6C49.3063 23.1067 49.6397 23.48 50.1197 23.72C50.5997 23.9333 51.3197 24.04 52.2797 24.04H52.9997ZM68.2031 0.0400009H78.5231C85.8031 0.0400009 89.4431 2.52 89.4431 7.48V18.96C89.4431 23.6533 85.8164 26 78.5631 26H68.2031V0.0400009ZM78.2831 23.36C83.2431 23.36 85.7231 21.8667 85.7231 18.88V7.44C85.7231 6.48 85.5231 5.66667 85.1231 5C84.7231 4.33333 84.1631 3.84 83.4431 3.52C82.7231 3.22667 81.9764 3.02667 81.2031 2.92C80.4298 2.78667 79.5231 2.72 78.4831 2.72H72.0831V23.36H78.2831ZM99.7117 26.28L92.2315 6.64H96.1515L101.552 22.44H101.632L106.512 6.64H110.152L100.432 34.32H96.6715L99.7117 26.28Z" fill="white"/>
</svg>
