<svg width="29" height="29" viewBox="0 0 29 29" fill="none" xmlns="http://www.w3.org/2000/svg">
<g clip-path="url(#clip0_1160_23)">
<path d="M4.08085 0C1.8203 0 0 1.8203 0 4.08085V24.9192C0 27.1797 1.8203 29 4.08085 29H24.9192C27.1797 29 29 27.1797 29 24.9192V4.08085C29 1.8203 27.1797 0 24.9192 0H4.08085ZM15.1498 2.96345C18.4408 2.96345 21.1166 5.64027 21.1166 8.9311C21.1166 12.2217 18.4408 14.897 15.1498 14.897C11.8587 14.897 9.18123 12.2217 9.18123 8.9311C9.18123 5.64027 11.8587 2.96345 15.1498 2.96345V2.96345ZM15.0864 6.45978C13.7533 6.49371 12.6785 7.59031 12.6785 8.93113C12.6785 10.2927 13.7874 11.4007 15.1498 11.4007C16.5119 11.4007 17.6193 10.2927 17.6193 8.93113C17.6193 7.56906 16.5119 6.45978 15.1498 6.45978C15.1285 6.45978 15.1075 6.45923 15.0864 6.45978V6.45978ZM10.2089 15.1C10.525 15.1011 10.8439 15.188 11.1315 15.3691C13.5741 16.905 16.7229 16.906 19.1663 15.3691C19.9844 14.8539 21.0626 15.1013 21.5778 15.9192C22.0924 16.7358 21.8452 17.8155 21.0277 18.3299C19.9619 18.9997 18.7905 19.4848 17.5631 19.7645L20.9 23.1013C21.583 23.783 21.583 24.8908 20.9 25.5735C20.2165 26.2565 19.1108 26.2565 18.4286 25.5735L15.148 22.2947L11.871 25.5735C11.5297 25.9149 11.082 26.0856 10.6349 26.0856C10.1873 26.0856 9.74101 25.9145 9.39873 25.5735C8.71575 24.8904 8.71595 23.7844 9.39873 23.1013L12.7337 19.7645C11.5193 19.4876 10.3474 19.0069 9.26823 18.3299C8.45234 17.8155 8.207 16.737 8.72175 15.9192C9.04255 15.408 9.5845 15.1192 10.1455 15.1009C10.1666 15.1002 10.1878 15.0999 10.2089 15.1H10.2089Z" fill="#E47E25"/>
</g>
<defs>
<clipPath id="clip0_1160_23">
<rect width="29" height="29" fill="white"/>
</clipPath>
</defs>
</svg>
