<svg width="30" height="29" viewBox="0 0 30 29" fill="none" xmlns="http://www.w3.org/2000/svg">
<g clip-path="url(#clip0_1160_17)">
<path d="M14.6265 0.579956C6.93857 0.579956 0.706467 6.81206 0.706467 14.5C0.706467 22.1879 6.93857 28.42 14.6265 28.42C22.3144 28.42 28.5465 22.1879 28.5465 14.5C28.5465 6.81206 22.3144 0.579956 14.6265 0.579956ZM19.9799 16.2849C19.9799 16.2849 21.2109 17.5 21.514 18.0641C21.5227 18.0757 21.527 18.0873 21.5299 18.0931C21.6532 18.3004 21.6822 18.4614 21.6213 18.5817C21.5198 18.7818 21.1718 18.8804 21.0529 18.8891H18.8779C18.7271 18.8891 18.411 18.85 18.0282 18.5861C17.7338 18.3802 17.4438 18.0423 17.1611 17.7132C16.7391 17.2231 16.3737 16.7997 16.0054 16.7997C15.9586 16.7996 15.9121 16.8069 15.8677 16.8214C15.5893 16.9113 15.2326 17.3086 15.2326 18.3671C15.2326 18.6977 14.9716 18.8877 14.7874 18.8877H13.7913C13.452 18.8877 11.6844 18.7688 10.1184 17.1172C8.20152 15.0945 6.47602 11.0374 6.46152 10.9997C6.35277 10.7372 6.57752 10.5966 6.82257 10.5966H9.01932C9.31222 10.5966 9.40792 10.7749 9.47462 10.933C9.55292 11.1171 9.84002 11.8494 10.3113 12.673C11.0754 14.0157 11.5438 14.5609 11.9193 14.5609C11.9897 14.56 12.0589 14.5421 12.1209 14.5087C12.611 14.2361 12.5196 12.4888 12.4979 12.1263C12.4979 12.0582 12.4964 11.3448 12.2456 11.0026C12.0658 10.7546 11.7598 10.6604 11.5742 10.6256C11.6493 10.5219 11.7483 10.4378 11.8628 10.3805C12.1992 10.2123 12.8053 10.1877 13.407 10.1877H13.742C14.3945 10.1964 14.5627 10.2384 14.799 10.2979C15.2775 10.4124 15.2877 10.7213 15.2456 11.7783C15.2326 12.0785 15.2195 12.4178 15.2195 12.818C15.2195 12.905 15.2152 12.9978 15.2152 13.0964C15.2007 13.6343 15.1833 14.2448 15.5632 14.4956C15.6127 14.5267 15.67 14.5433 15.7285 14.5435C15.8604 14.5435 16.2577 14.5435 17.3336 12.6976C17.6654 12.1035 17.9538 11.4861 18.1964 10.8503C18.2181 10.8126 18.2819 10.6966 18.3573 10.6517C18.413 10.6233 18.4747 10.6089 18.5371 10.6096H21.1196C21.4009 10.6096 21.5937 10.6517 21.63 10.7604C21.6938 10.933 21.6184 11.4593 20.4395 13.0558L19.9132 13.7503C18.8445 15.151 18.8445 15.2221 19.9799 16.2849V16.2849Z" fill="#577CA2"/>
</g>
<defs>
<clipPath id="clip0_1160_17">
<rect width="29" height="29" fill="white" transform="translate(0.126465)"/>
</clipPath>
</defs>
</svg>
