<svg width="196" height="29" viewBox="0 0 196 29" fill="none" xmlns="http://www.w3.org/2000/svg">
<path d="M25 19.6206C25 20.4368 24.3384 21.0985 23.5222 21.0985H1.47778C0.661621 21.0985 0 20.4368 0 19.6206V5.33525C0 4.51904 0.661621 3.85742 1.47778 3.85742H23.5222C24.3384 3.85742 25 4.51909 25 5.33525V19.6206Z" fill="white"/>
<path d="M5.54883 12.5774L4.96182 9.76139C4.86148 9.37306 4.56949 9.25753 4.20464 9.24225H1.51333L1.48936 9.37091C3.5855 9.87907 4.97246 11.1049 5.54883 12.5774Z" fill="#F79F1A"/>
<path d="M11.7849 9.29889H10.0459L8.95991 15.6723H10.6959L11.7849 9.29889Z" fill="#059BBF"/>
<path d="M6.60864 15.6659L9.34351 9.30322H7.50313L5.80181 13.6503L5.62022 12.9939C5.28672 12.2043 4.33359 11.0679 3.21465 10.3524L4.76983 15.668L6.60864 15.6659Z" fill="#059BBF"/>
<path d="M16.7447 13.5888C16.7511 12.8652 16.2865 12.3133 15.2854 11.8574C14.6769 11.563 14.3061 11.3667 14.3105 11.0679C14.3105 10.8039 14.6246 10.5204 15.305 10.5204C15.8744 10.5116 16.2844 10.636 16.605 10.7647L16.7622 10.8367L16.9978 9.45598C16.6531 9.32722 16.1143 9.18982 15.4404 9.18982C13.7238 9.18982 12.5154 10.0536 12.5045 11.2926C12.4936 12.2087 13.3684 12.7191 14.027 13.0244C14.7031 13.3357 14.93 13.5348 14.9256 13.814C14.9213 14.2409 14.3868 14.4356 13.8874 14.4356C13.1916 14.4356 12.8229 14.3397 12.2512 14.1015L12.029 13.9994L11.785 15.4276C12.1904 15.6048 12.9406 15.7597 13.7194 15.7661C15.545 15.7661 16.7316 14.9133 16.7447 13.5888Z" fill="#059BBF"/>
<path d="M18.8102 14.717C19.0087 14.717 20.782 14.7192 21.0351 14.7192C21.0875 14.9411 21.2467 15.6745 21.2467 15.6745H22.8585L21.4517 9.30548H20.1103C19.6936 9.30548 19.384 9.41891 19.2007 9.83326L16.6204 15.6745H18.4461C18.446 15.6745 18.7426 14.8894 18.8102 14.717ZM20.0011 11.6306C19.9925 11.648 20.1451 11.262 20.2324 11.022L20.3501 11.5716C20.3501 11.5716 20.6817 13.0942 20.7515 13.4126H19.3097C19.4537 13.0462 20.0011 11.6306 20.0011 11.6306Z" fill="#059BBF"/>
<path d="M23.5222 3.85742H1.47778C0.661621 3.85742 0 4.51904 0 5.33525V6.86904H25V5.33525C25 4.51904 24.3384 3.85742 23.5222 3.85742Z" fill="#059BBF"/>
<path d="M23.5222 21.0985H1.47778C0.661621 21.0985 0 20.4369 0 19.6207V18.0869H25V19.6207C25 20.4369 24.3384 21.0985 23.5222 21.0985Z" fill="#F79F1A"/>
<path opacity="0.15" d="M1.05063 19.6206V5.33525C1.05063 4.51904 1.7123 3.85742 2.52852 3.85742H1.47773C0.661621 3.85742 0 4.51904 0 5.33525V19.6207C0 20.4369 0.661621 21.0985 1.47778 21.0985H2.52856C1.71235 21.0985 1.05063 20.4368 1.05063 19.6206Z" fill="#202121"/>
<path d="M65 12.5C65 19.4036 59.4036 25 52.5 25C46.9357 25 42.2204 21.3643 40.6005 16.3383C40.2107 15.1291 40 13.8388 40 12.5C40 7.44028 43.0061 3.08267 47.3296 1.11582C48.9051 0.398975 50.6561 0 52.5 0C59.4036 0 65 5.59644 65 12.5Z" fill="#F0EFEB"/>
<path d="M48.4976 16.7485C52.0561 16.7485 54.9409 13.8637 54.9409 10.3052C54.9409 6.74661 52.0561 3.86182 48.4976 3.86182C44.939 3.86182 42.0542 6.74661 42.0542 10.3052C42.0542 13.8637 44.939 16.7485 48.4976 16.7485Z" fill="#EE0005"/>
<path d="M56.5024 16.7485C60.061 16.7485 62.9458 13.8637 62.9458 10.3052C62.9458 6.74661 60.061 3.86182 56.5024 3.86182C52.9439 3.86182 50.0591 6.74661 50.0591 10.3052C50.0591 13.8637 52.9439 16.7485 56.5024 16.7485Z" fill="#0098E2"/>
<path d="M50.0594 10.3051C50.0594 12.351 51.0131 14.174 52.5 15.3543C53.9869 14.1739 54.9406 12.351 54.9406 10.3051C54.9406 8.25919 53.9869 6.43624 52.5 5.25592C51.0131 6.43629 50.0594 8.25924 50.0594 10.3051Z" fill="#6C69BF"/>
<path d="M45.8413 19.4724C45.8413 19.1904 45.6412 19.004 45.4183 19.004C45.2046 19.004 44.9954 19.1677 44.9954 19.477V20.6049C44.9954 20.6822 44.8816 20.7641 44.7543 20.7641C44.6133 20.7641 44.5178 20.6823 44.5178 20.6049V18.7629C44.5178 18.672 44.6133 18.6083 44.7543 18.6083C44.868 18.6083 44.9681 18.672 44.9681 18.7629V18.9266C45.0681 18.7493 45.2682 18.581 45.5729 18.581C45.8458 18.581 46.0641 18.7675 46.1687 19.0358C46.3279 18.7265 46.5917 18.581 46.8554 18.581C47.2647 18.581 47.6468 18.9039 47.6468 19.4769V20.6049C47.6468 20.6822 47.5376 20.7641 47.4057 20.7641C47.2829 20.7641 47.1692 20.6822 47.1692 20.6049V19.4769C47.1692 19.1631 46.9555 18.9994 46.7463 18.9994C46.5325 18.9994 46.3188 19.1722 46.3188 19.4678V20.6094C46.3188 20.7185 46.2005 20.7641 46.0777 20.7641C45.9686 20.7641 45.8413 20.7186 45.8413 20.6094V19.4724H45.8413V19.4724Z" fill="#171614"/>
<path d="M49.9667 19.4633V20.6049C49.9667 20.6913 49.8666 20.7641 49.7347 20.7641C49.6119 20.7641 49.5164 20.6913 49.5164 20.6049V20.4457C49.3572 20.6322 49.1389 20.8004 48.8297 20.8004C48.4977 20.8004 48.2248 20.6094 48.2248 20.2001C48.2248 19.6862 48.6569 19.5497 49.2891 19.5497H49.4892V19.4679C49.4892 19.2359 49.371 18.9767 49.0389 18.9767C48.7069 18.9767 48.6251 19.1131 48.5341 19.1131C48.4204 19.1131 48.3613 18.9812 48.3613 18.8721C48.3613 18.7083 48.7388 18.581 49.048 18.581C49.7165 18.5809 49.9667 19.0084 49.9667 19.4633ZM49.489 19.8135H49.3753C49.0297 19.8135 48.7067 19.8498 48.7067 20.1409C48.7067 20.3455 48.8341 20.4365 49.0023 20.4365C49.2297 20.4365 49.489 20.2 49.489 19.9817L49.489 19.8135Z" fill="#171614"/>
<path d="M52.4545 19.4224C52.4545 19.7998 52.2453 19.8135 52.0406 19.8135H51.081V19.9181C51.081 20.2227 51.322 20.4138 51.6722 20.4138C51.9951 20.4138 52.1042 20.241 52.227 20.241C52.3407 20.241 52.4135 20.3728 52.4135 20.4547C52.4135 20.5911 52.1179 20.8004 51.6585 20.8004C51.04 20.8004 50.6033 20.4366 50.6033 19.8953V19.4633C50.6033 18.9857 51.0263 18.581 51.5493 18.581C52.0361 18.5809 52.4545 18.9266 52.4545 19.4224ZM51.8359 19.5179C51.9678 19.5179 52.0042 19.4906 52.0042 19.3814C52.0042 19.1404 51.8041 18.9448 51.5449 18.9448C51.2947 18.9448 51.081 19.1222 51.081 19.3723V19.5179H51.8359Z" fill="#171614"/>
<path d="M54.101 20.1864C54.101 19.7089 53.0049 19.9909 53.0049 19.2359C53.0049 18.9221 53.2096 18.581 53.7827 18.581C54.1238 18.581 54.4649 18.7038 54.4649 18.8493C54.4649 18.9175 54.3966 19.0812 54.283 19.0812C54.1875 19.0812 54.0464 18.9494 53.7918 18.9494C53.5235 18.9494 53.4234 19.0994 53.4234 19.2131C53.4234 19.6133 54.5286 19.3495 54.5286 20.1682C54.5286 20.5548 54.2421 20.8004 53.7282 20.8004C53.2779 20.8004 52.9459 20.6094 52.9459 20.4366C52.9459 20.3547 53.0141 20.2228 53.1096 20.2228C53.2279 20.2228 53.3234 20.432 53.7145 20.432C54.0146 20.432 54.101 20.3092 54.101 20.1864Z" fill="#171614"/>
<path d="M55.6156 20.0545C55.6156 20.2729 55.6975 20.3547 55.9339 20.3547H56.0931C56.2296 20.3547 56.2978 20.4548 56.2978 20.5594C56.2978 20.664 56.2296 20.764 56.0931 20.764H55.9339C55.4155 20.764 55.138 20.5502 55.138 20.0545V17.776C55.138 17.685 55.2608 17.6213 55.3746 17.6213C55.4928 17.6213 55.6156 17.685 55.6156 17.776V18.6083H56.1704C56.2523 18.6083 56.3023 18.6947 56.3023 18.7856C56.3023 18.8766 56.2523 18.963 56.1704 18.963H55.6156V20.0545V20.0545Z" fill="#171614"/>
<path d="M57.8988 19.0039C57.6213 19.0039 57.3485 19.2586 57.3485 19.6725V20.6048C57.3485 20.6821 57.2393 20.764 57.1029 20.764C56.9665 20.764 56.871 20.6821 56.871 20.6048V18.7628C56.871 18.6718 56.9665 18.6082 57.1029 18.6082C57.2211 18.6082 57.3212 18.6718 57.3212 18.7628V18.9629C57.4168 18.7719 57.6305 18.5809 57.8988 18.5809H58.0444C58.1399 18.5809 58.2263 18.6764 58.2263 18.7901C58.2263 18.9084 58.1399 19.0039 58.0444 19.0039H57.8988V19.0039Z" fill="#171614"/>
<path d="M60.4821 19.4769V19.8953C60.4821 20.3683 60.041 20.8004 59.5407 20.8004C59.0359 20.8004 58.5993 20.3729 58.5993 19.8953V19.4769C58.5993 18.9994 59.0223 18.581 59.5407 18.581C60.041 18.5809 60.4821 18.9857 60.4821 19.4769ZM60.0046 19.4769C60.0046 19.2405 59.7954 19.0039 59.5407 19.0039C59.2815 19.0039 59.0768 19.2404 59.0768 19.4769V19.8953C59.0768 20.141 59.2815 20.3774 59.5407 20.3774C59.7954 20.3774 60.0046 20.141 60.0046 19.8953V19.4769Z" fill="#171614"/>
<g clip-path="url(#clip0_1159_16)">
<path d="M92.6376 3.04364C94.6107 3.04364 96.4889 3.49687 98.1733 4.3053C98.4378 4.42441 98.7034 4.5667 98.9669 4.71004L97.8117 5.73244L96.08 3.94904L93.095 6.56617L91.3379 4.6858L85.8497 9.5638L89.3638 13.3952L87.9914 14.5841L91.4592 18.4155L90.0868 19.6044L95.0449 25.0537L97.9804 22.3881L100.532 25.2445C100.026 25.625 99.4729 26.0065 98.8721 26.3396C96.9747 27.4016 94.8362 27.9583 92.6618 27.9564C85.7053 27.9554 80.0494 22.3638 80.0494 15.4895C80.0252 8.65945 85.681 3.04364 92.6376 3.04364ZM90.3261 14.7285L93.3353 12.0629L96.0315 15.0373L93.0223 17.7029L90.3261 14.7285ZM92.4689 19.8679L95.4539 17.1801L98.1733 20.1535L95.164 22.8192L92.4689 19.8679ZM88.1864 9.66077L91.1946 6.99516L93.8897 9.9696L90.8816 12.6342L88.1864 9.66077ZM93.6968 8.23258L95.9356 6.23416L97.9582 8.44654L95.7195 10.4692L93.6968 8.23258ZM97.6937 17.3931L99.9314 15.3946L101.953 17.6302L99.7142 19.6307L97.6937 17.3931ZM99.6668 21.8906L101.906 19.8911L103.926 22.1045L101.688 24.1261L99.6668 21.8906ZM100.582 11.6107L102.073 10.2784L103.421 11.7541L101.929 13.0863L100.582 11.6107ZM98.656 7.20912L100.148 5.85366L101.498 7.35247L100.003 8.68475L98.656 7.20912ZM102.482 16.0133L103.975 14.6811L105.347 16.1567L103.831 17.489L102.482 16.0133ZM95.768 12.7058L98.0067 10.7074L100.028 12.9198L97.7896 14.9193L95.768 12.7058Z" fill="#216EB5"/>
</g>
<g clip-path="url(#clip1_1159_16)">
<path d="M142.789 3C135.923 3 130.461 8.53965 130.461 15.3281C130.461 22.1949 136.001 27.6563 142.789 27.6563C149.577 27.6563 155.117 22.1166 155.117 15.3281C155.117 8.53965 149.577 3 142.789 3ZM142.789 19.8538C140.292 19.8538 138.185 17.7469 138.185 15.2499C138.185 12.7534 140.292 10.6465 142.789 10.6465C145.286 10.6465 147.393 12.7534 147.393 15.2499C147.314 17.8252 145.286 19.8538 142.789 19.8538H142.789ZM130.383 6.51106V24.4571H126.013L120.395 6.51106H130.383Z" fill="#8B3FFD"/>
</g>
<path d="M194.789 27.8545C194.675 27.5403 194.467 27.326 194.318 27.0475C193.953 26.5689 193.525 26.1547 193.096 25.7404C192.946 25.6904 192.882 25.5476 192.739 25.4904C192.646 25.369 192.496 25.3047 192.375 25.2119C192.132 25.0262 191.868 24.8691 191.596 24.7119C191.082 24.3834 190.446 24.1762 189.818 23.962C189.139 23.7977 188.425 23.6763 187.682 23.5763C186.947 23.4692 186.211 23.3692 185.654 23.0763C185.332 22.9835 185.097 22.8049 184.818 22.6621C184.561 22.4907 184.283 22.3478 184.068 22.1335C183.804 21.9764 183.64 21.7122 183.433 21.4979C183.361 21.355 183.24 21.2693 183.183 21.1122C183.111 21.0836 183.09 20.9979 183.047 20.9479C182.997 20.8908 182.997 20.7765 182.911 20.7551C182.868 21.0479 182.883 21.3979 182.911 21.6979C182.947 21.8264 182.961 21.9836 182.997 22.1121C183.018 22.2264 183.125 22.4121 183.083 22.4978C180.854 22.3835 179.226 21.6764 177.812 20.7479C177.112 20.2837 176.512 19.7194 175.955 19.1123C175.712 18.7767 175.448 18.4553 175.233 18.0839C175.012 17.7196 174.826 17.3053 174.626 16.9197C174.298 16.084 173.99 15.2269 173.876 14.177C173.726 13.1985 173.762 11.9486 173.983 11.0415C174.062 10.5416 174.226 10.1202 174.369 9.68449C174.462 9.48451 174.562 9.28453 174.648 9.0774C174.769 8.90598 174.833 8.67029 174.983 8.5203C175.39 7.75607 175.997 7.18469 176.619 6.63473C177.29 6.14191 178.054 5.74194 178.976 5.4991C179.861 5.29911 181.069 5.2634 182.026 5.47053C183.968 5.8705 185.432 6.74186 186.661 7.85606C187.904 8.94884 188.861 10.3344 189.518 12.02C190.196 13.6199 190.432 16.1126 189.825 17.9267C189.575 17.7839 189.325 17.6482 189.075 17.5125C188.775 17.4268 188.482 17.3268 188.132 17.2911C187.711 17.2839 187.297 17.2911 187.025 17.4268C187.575 17.3696 188.018 17.5196 188.361 17.6482C188.561 17.7267 188.675 17.7767 188.832 17.8696C189.139 18.0481 189.411 18.2124 189.639 18.4553C190.289 19.0266 190.753 19.7837 190.975 20.7836C190.975 20.8122 191.011 20.8051 191.003 20.7551C191.032 20.7479 191.046 20.7265 191.061 20.6979C191.096 20.6551 191.139 20.6122 191.175 20.5622C191.246 20.4765 191.318 20.3908 191.368 20.2837C191.518 20.1051 191.639 19.9051 191.753 19.698C192.018 19.3123 192.218 18.8695 192.446 18.4481C192.839 17.5482 193.16 16.5768 193.36 15.4769C193.76 13.0342 193.282 10.7201 192.446 9.01312C191.589 7.29182 190.389 5.91335 188.839 4.87772C187.275 3.84922 185.447 3.09214 182.933 3.02072C182.918 2.97072 182.897 3.02786 182.847 3.02072C181.518 2.97786 180.447 3.16356 179.383 3.43497C178.89 3.59924 178.376 3.74209 177.94 3.9635C177.44 4.12777 177.04 4.39918 176.583 4.59917C176.419 4.7563 176.169 4.83486 175.997 4.98485C175.776 5.09199 175.612 5.2634 175.39 5.37054C175.033 5.6848 174.655 5.96335 174.305 6.28475C173.962 6.59902 173.662 6.95613 173.333 7.28468C173.283 7.39895 173.198 7.47752 173.112 7.56323C173.055 7.67036 172.983 7.76321 172.891 7.84178C172.855 7.97034 172.741 8.02034 172.698 8.1489C172.605 8.22032 172.583 8.36317 172.476 8.42745C172.383 8.656 172.219 8.82027 172.112 9.03454C171.983 9.24167 171.883 9.47023 171.755 9.67021C171.555 10.1345 171.341 10.5844 171.176 11.0844C171.005 11.5701 170.862 12.0843 170.762 12.6414C170.655 13.1628 170.555 13.8413 170.569 14.3913C170.498 14.5913 170.555 14.9627 170.569 15.1984C170.569 15.2412 170.541 15.2555 170.541 15.2841C170.541 15.5483 170.612 15.8697 170.626 16.034C170.684 16.6411 170.791 17.2054 170.962 17.6982C171.069 18.2481 171.298 18.6767 171.462 19.1695C171.712 19.5837 171.883 20.0766 172.183 20.448C172.405 20.8836 172.719 21.2265 173.019 21.5836C173.341 21.9264 173.662 22.2764 174.048 22.5549C174.755 23.1692 175.583 23.662 176.49 24.0834C178.183 24.9048 180.711 25.4404 182.983 25.3047C183.561 25.2262 184.147 25.1547 184.675 25.0262C185.161 24.8476 185.725 24.7405 186.311 24.6691C187.647 24.5834 188.804 24.7048 189.832 25.0048C190.875 25.2833 191.775 25.7047 192.553 26.2547C192.968 26.4975 193.31 26.8118 193.66 27.1117C194.018 27.4189 194.303 27.7974 194.632 28.1402C194.675 28.2688 194.76 28.3616 194.825 28.4759C194.91 28.5688 194.867 28.783 195.075 28.7545C195.203 28.6259 195.053 28.4402 195.046 28.2831C194.917 28.1474 194.889 27.9688 194.789 27.8545V27.8545Z" fill="#FCB316"/>
<path d="M189.604 20.2551C189.575 20.2551 189.568 20.2765 189.546 20.2837C189.496 20.3908 189.518 20.5622 189.546 20.6693C189.696 20.9765 189.746 21.3764 190.075 21.505C190.232 21.455 190.218 21.2264 190.211 21.005C190.139 20.7336 190.039 20.4908 189.875 20.3122C189.761 20.2694 189.682 20.198 189.604 20.2551V20.2551ZM187.661 21.0336C187.661 21.0193 187.639 21.005 187.632 21.0336C187.361 20.9979 187.268 21.1479 187.132 21.255C186.897 21.8764 187.275 22.4835 187.939 22.4764C188.204 22.4121 188.368 22.2407 188.411 21.9478C188.375 21.4264 188.154 21.0907 187.661 21.0336V21.0336Z" fill="#FCB316"/>
<defs>
<clipPath id="clip0_1159_16">
<rect width="25.3953" height="25" fill="white" transform="translate(80 3)"/>
</clipPath>
<clipPath id="clip1_1159_16">
<rect width="35.1389" height="25" fill="white" transform="translate(120.395 3)"/>
</clipPath>
</defs>
</svg>
